<?xml version="1.0" standalone="no"?>
<!DOCTYPE svg PUBLIC "-//W3C//DTD SVG 20010904//EN"
 "http://www.w3.org/TR/2001/REC-SVG-20010904/DTD/svg10.dtd">
<svg version="1.0" xmlns="http://www.w3.org/2000/svg"
 width="1280.000000pt" height="1102.000000pt" viewBox="0 0 1280.000000 1102.000000"
 preserveAspectRatio="xMidYMid meet">
<metadata>
Created by potrace 1.15, written by Peter Selinger 2001-2017
</metadata>
<g transform="translate(0.000000,1102.000000) scale(0.100000,-0.100000)"
fill="#ffff" stroke="none">
<path d="M6252 11009 c-234 -39 -455 -223 -539 -450 -63 -168 -50 -372 36
-553 54 -114 91 -160 170 -211 l69 -44 6 -378 c3 -208 9 -406 11 -440 7 -75
10 -74 -112 -33 -229 80 -447 217 -537 340 -86 117 -108 225 -93 470 14 238
-5 351 -85 500 -56 105 -125 195 -216 282 -86 83 -233 196 -327 253 -59 36
-61 36 -139 30 -151 -13 -300 -66 -511 -185 -191 -107 -585 -302 -780 -385
-493 -211 -983 -349 -1500 -424 -334 -48 -437 -54 -960 -56 -318 -1 -518 -6
-550 -13 -124 -27 -195 -68 -195 -113 0 -46 138 -179 255 -244 33 -19 152 -76
265 -128 208 -96 370 -154 509 -182 109 -22 108 -22 83 -48 -28 -30 -52 -89
-52 -129 0 -102 119 -186 350 -247 85 -22 290 -57 395 -66 120 -10 115 -7 96
-60 -15 -44 -15 -46 8 -89 27 -52 67 -82 171 -129 197 -90 446 -107 693 -48
l77 18 0 -46 c1 -183 236 -304 528 -272 57 7 131 21 165 31 34 11 63 20 64 20
2 0 -6 -15 -17 -32 -25 -42 -25 -69 1 -102 53 -68 242 -117 499 -131 63 -3
152 -8 197 -11 l83 -6 -71 -55 c-130 -102 -239 -249 -285 -385 -91 -269 13
-533 280 -709 181 -120 411 -217 636 -269 52 -12 101 -24 108 -26 8 -2 -19
-30 -62 -65 -42 -33 -101 -90 -131 -127 -105 -125 -185 -329 -185 -470 0 -53
51 -217 95 -303 72 -145 217 -300 380 -407 110 -73 258 -152 357 -191 l57 -23
-73 -49 c-199 -133 -296 -317 -296 -563 0 -122 17 -193 70 -301 76 -154 144
-211 535 -450 116 -71 212 -130 214 -131 2 -2 -22 -31 -54 -66 -75 -82 -103
-124 -170 -251 -68 -128 -85 -200 -85 -362 0 -145 21 -232 74 -309 35 -51 189
-207 235 -238 l24 -17 -65 -80 c-97 -122 -158 -254 -173 -376 -14 -111 53
-268 165 -388 l68 -72 -21 -40 c-11 -22 -31 -71 -45 -110 -33 -94 -26 -191 19
-283 43 -88 81 -128 161 -168 l68 -34 2 -123 c3 -201 4 -227 11 -233 13 -14
222 -27 250 -15 27 10 27 11 27 106 0 96 0 96 23 89 67 -24 152 17 191 91 17
32 21 55 19 117 -3 82 -18 132 -58 184 -14 18 -25 38 -25 44 0 6 18 38 41 72
41 59 41 61 40 145 -1 62 -6 94 -21 122 -20 39 -100 118 -151 148 -40 24 -36
38 14 53 149 44 331 189 393 313 14 27 28 71 31 98 5 42 3 49 -11 49 -10 0
-14 5 -11 10 4 6 10 8 15 5 15 -9 35 61 35 126 0 60 -5 76 -50 164 -28 54 -67
117 -88 141 l-38 43 36 49 c45 63 89 160 117 259 31 112 31 296 0 408 -29 100
-83 202 -140 266 -38 43 -43 52 -31 64 8 7 95 57 194 110 199 108 239 133 336
211 122 99 216 246 263 409 30 102 33 143 11 151 -12 5 -13 10 -5 19 30 36
-71 278 -163 390 -48 59 -149 148 -207 182 -23 14 -40 26 -38 28 2 1 58 25
125 53 576 237 901 709 758 1102 -54 148 -124 269 -200 346 l-70 70 75 18
c457 108 839 371 899 621 19 78 15 228 -8 315 -49 184 -166 366 -290 453 -14
9 -23 18 -20 21 2 2 83 9 179 16 262 17 336 28 418 62 124 52 152 88 126 165
-8 21 -14 41 -14 45 0 4 24 -3 53 -16 55 -25 152 -51 228 -61 138 -20 411 107
467 218 22 42 24 52 14 84 -6 21 -10 38 -9 40 2 1 30 -4 62 -12 232 -53 512
-42 685 27 86 34 172 90 198 128 24 35 26 80 7 136 -6 21 -3 21 112 28 405 25
625 106 705 260 26 51 21 129 -10 173 -12 17 -22 33 -22 36 0 3 35 13 78 22
106 24 467 144 577 192 102 44 268 145 355 216 69 56 115 125 106 161 -21 85
-221 124 -534 105 -259 -16 -581 -2 -962 41 -47 5 -132 14 -190 21 -271 29
-611 95 -810 156 -262 80 -733 278 -1165 489 -77 38 -151 74 -163 79 -13 6
-112 56 -220 111 -241 124 -334 157 -452 158 -76 1 -91 -2 -137 -28 -104 -58
-382 -302 -460 -405 -83 -109 -178 -346 -190 -473 -3 -32 3 -125 13 -208 15
-123 16 -162 7 -216 -40 -234 -281 -439 -631 -539 -68 -19 -133 -35 -144 -35
-23 0 -23 -60 -1 673 l6 218 63 49 c83 65 138 136 184 235 50 106 64 170 64
290 0 130 -16 199 -70 312 -96 201 -282 338 -512 378 -92 16 -159 17 -240 4z
m-2443 -591 c-8 -26 -14 -36 -16 -25 -5 20 18 97 24 80 2 -6 -1 -31 -8 -55z
m2182 -2728 l36 -10 6 -148 c4 -81 9 -316 12 -522 3 -206 8 -397 11 -424 l5
-49 -98 7 c-108 8 -182 18 -513 69 -124 19 -265 40 -315 46 -185 23 -242 34
-302 56 -192 73 -321 230 -331 404 -5 95 8 146 52 197 37 44 120 87 203 105
26 6 206 14 398 18 332 7 355 9 446 33 159 43 229 90 229 153 0 18 -10 45 -22
60 l-22 28 85 -7 c46 -4 100 -11 120 -16z m998 -45 c-24 -40 -21 -67 12 -109
67 -85 281 -119 734 -114 238 3 254 2 324 -20 89 -28 137 -57 183 -112 46 -53
62 -111 56 -204 -8 -128 -76 -233 -207 -320 -129 -86 -256 -123 -506 -146 -66
-6 -223 -24 -350 -40 -323 -41 -555 -64 -562 -56 -6 6 10 696 24 988 l6 137
66 10 c83 13 122 17 188 19 l52 2 -20 -35z m-175 -1531 c108 -17 330 -70 436
-104 148 -48 265 -124 307 -202 27 -50 24 -205 -5 -278 -34 -85 -109 -177
-213 -262 -125 -101 -222 -160 -345 -208 -100 -39 -316 -100 -355 -100 -23 0
-23 -31 -4 545 8 242 15 482 15 533 l0 92 31 0 c18 0 77 -7 133 -16z m-741
-316 c3 -167 8 -406 11 -531 3 -126 2 -227 -2 -225 -22 8 -878 543 -885 553
-4 5 -6 32 -3 59 23 218 289 373 736 430 58 8 112 14 121 15 14 1 17 -33 22
-301z m41 -1715 c3 -181 7 -363 9 -405 1 -43 0 -78 -4 -78 -20 0 -185 150
-242 220 -191 234 -175 382 56 515 45 26 154 74 168 75 4 0 10 -147 13 -327z
m716 134 c107 -66 201 -125 209 -132 11 -11 -22 -57 -195 -273 -177 -220 -247
-296 -259 -280 -6 8 16 532 24 588 6 36 8 103 4 149 -5 71 -4 83 8 76 8 -5
102 -62 209 -128z m171 6 c30 -32 53 -72 46 -80 -3 -2 -11 6 -17 19 -7 12 -31
43 -54 67 -22 24 -32 39 -21 33 11 -6 32 -23 46 -39z m107 -167 c-10 -7 -27
-34 -38 -61 -11 -26 -23 -46 -25 -43 -3 3 0 30 6 61 11 55 13 57 43 57 28 -1
29 -2 14 -14z m-548 -1591 c-8 -34 -9 -28 -5 39 3 43 6 109 7 145 2 43 3 29 5
-39 2 -58 -1 -123 -7 -145z m-847 -80 c-3 -9 -8 -14 -10 -11 -3 3 -2 9 2 15 9
16 15 13 8 -4z"/>
</g>
</svg>
